<mxfile host="app.diagrams.net" modified="2023-11-23T06:09:20.103Z" agent="Mozilla/5.0 (Macintosh; Intel Mac OS X 10_15_7) AppleWebKit/537.36 (KHTML, like Gecko) Chrome/119.0.0.0 Safari/537.36" version="22.1.3" etag="og7i9wqoccvIQM6Ht7yH" type="github">
  <diagram name="第 1 页" id="e23d1hfw_bAf55XDkIu7">
    <mxGraphModel>
      <root>
        <mxCell id="0" />
        <mxCell id="1" parent="0" />
      </root>
    </mxGraphModel>
  </diagram>
</mxfile>
